<?xml version="1.0" ?><!-- Uploaded to: SVG Repo, www.svgrepo.com, Generator: SVG Repo Mixer Tools -->
<svg width="800px" height="800px" viewBox="0 0 60 60" xmlns="http://www.w3.org/2000/svg"><rect fill="#ffffff" height="60" rx="10" width="60"/><path d="M34,53.5h-.027a1.5,1.5,0,0,1-1.42-1.1L22.063,13.933,15.455,40.364a1.5,1.5,0,0,1-2.848.193L8.984,31.5H8a1.5,1.5,0,0,1,0-3h2a1.5,1.5,0,0,1,1.393.943l2.277,5.693,6.875-27.5A1.5,1.5,0,0,1,21.984,6.5H22a1.5,1.5,0,0,1,1.447,1.105L34.1,46.658l8.47-27.1a1.5,1.5,0,0,1,2.825-.11L49.016,28.5H52a1.5,1.5,0,0,1,0,3H48a1.5,1.5,0,0,1-1.393-.943l-2.433-6.084L35.432,52.447A1.5,1.5,0,0,1,34,53.5Z" fill="#8d9cf4"/><path d="M34,53.5a1.5,1.5,0,0,1-1.446-1.1l-12-44a1.5,1.5,0,1,1,2.894-.79l12,44A1.5,1.5,0,0,1,34,53.5Z" fill="#7bcdd1"/><path d="M44,53.5A1.5,1.5,0,0,1,42.5,52V8a1.5,1.5,0,0,1,3,0V52A1.5,1.5,0,0,1,44,53.5Z" fill="#f2c4bb"/><circle cx="44" cy="20" fill="#f2c4bb" r="4"/><path d="M44,25.5A5.5,5.5,0,1,1,49.5,20,5.507,5.507,0,0,1,44,25.5Zm0-8A2.5,2.5,0,1,0,46.5,20,2.5,2.5,0,0,0,44,17.5Z" fill="#f28080"/></svg>